<svg id="Layer_1" enable-background="new 0 0 512 512" height="512" viewBox="0 0 512 512" width="512" xmlns="http://www.w3.org/2000/svg"><g><g><path clip-rule="evenodd" d="m31.25 411h325c8.284 0 15-6.716 15-15v-381c0-8.284-6.716-15-15-15h-325c-8.284 0-15 6.716-15 15v381c0 8.284 6.716 15 15 15z" fill="#fff4f4" fill-rule="evenodd"/></g><path clip-rule="evenodd" d="m356.25 0h-162.497v411h162.497c8.284 0 15-6.716 15-15v-381c0-8.284-6.716-15-15-15z" fill="#f6efea" fill-rule="evenodd"/><g><path d="m436.95 512h-131.4c-32.422 0-58.8-26.336-58.8-58.708v-186.291c0-8.284 6.716-15 15-15h219c8.284 0 15 6.716 15 15v186.291c0 32.372-26.378 58.708-58.8 58.708z" fill="#ff0059"/></g><path d="m480.75 252.001h-109.479v259.999h65.679c32.422 0 58.8-26.336 58.8-58.708v-186.291c0-8.284-6.716-15-15-15z" fill="#d20041"/><g><path d="m415.75 304.5c-8.284 0-15-6.716-15-15v-59.9c0-15.88-13.233-28.8-29.5-28.8s-29.5 12.919-29.5 28.8v59.9c0 8.284-6.716 15-15 15s-15-6.716-15-15v-59.9c0-32.422 26.691-58.8 59.5-58.8s59.5 26.377 59.5 58.8v59.9c0 8.284-6.716 15-15 15z" fill="#00429d"/></g><g><path d="m88.251 106c-.182 0-.363-.003-.546-.01-4.352-.158-8.419-2.2-11.147-5.594l-12-14.931c-5.189-6.457-4.161-15.899 2.296-21.088 6.457-5.19 15.898-4.161 21.089 2.295l1.141 1.419 17.048-18.313c5.646-6.063 15.138-6.402 21.199-.758 6.063 5.645 6.403 15.136.758 21.2l-28.859 31c-2.844 3.054-6.824 4.78-10.979 4.78z" fill="#7d0"/></g><g><path d="m311.249 90.5h-133.999c-8.284 0-15-6.716-15-15s6.716-15 15-15h133.999c8.284 0 15 6.716 15 15s-6.716 15-15 15z" fill="#27d8f6"/></g><g><path d="m88.251 197c-.182 0-.363-.003-.546-.01-4.352-.158-8.419-2.2-11.147-5.594l-12-14.931c-5.189-6.457-4.161-15.899 2.296-21.088 6.457-5.19 15.898-4.161 21.089 2.295l1.141 1.419 17.048-18.313c5.646-6.063 15.138-6.402 21.199-.758 6.063 5.645 6.403 15.136.758 21.2l-28.859 31c-2.844 3.054-6.824 4.78-10.979 4.78z" fill="#7d0"/></g><g><path d="m261.248 181.5h-83.998c-8.284 0-15-6.716-15-15s6.716-15 15-15h83.998c8.284 0 15 6.716 15 15s-6.716 15-15 15z" fill="#27d8f6"/></g><g><path d="m88.251 288c-.182 0-.363-.003-.546-.01-4.352-.158-8.419-2.2-11.147-5.594l-12-14.931c-5.189-6.457-4.161-15.899 2.296-21.088s15.898-4.162 21.089 2.295l1.141 1.419 17.048-18.313c5.646-6.063 15.138-6.403 21.199-.758 6.063 5.645 6.403 15.136.758 21.2l-28.859 31c-2.844 3.054-6.824 4.78-10.979 4.78z" fill="#7d0"/></g><g><path d="m202.247 272.5h-24.997c-8.284 0-15-6.716-15-15s6.716-15 15-15h24.997c8.284 0 15 6.716 15 15s-6.716 15-15 15z" fill="#27d8f6"/></g><g fill="#00aadf"><path d="m311.249 60.5h-117.496v30h117.496c8.284 0 15-6.716 15-15s-6.716-15-15-15z"/><path d="m261.248 151.5h-67.495v30h67.495c8.284 0 15-6.716 15-15s-6.716-15-15-15z"/><path d="m202.247 242.5h-8.494v30h8.494c8.284 0 15-6.716 15-15s-6.716-15-15-15z"/></g><path d="m371.271 170.8v30c16.257.011 29.479 12.926 29.479 28.799v59.9c0 8.284 6.716 15 15 15s15-6.716 15-15v-59.9c0-32.415-26.68-58.787-59.479-58.799z" fill="#00347b"/></g></svg>