<?xml version="1.0" encoding="iso-8859-1"?>
<!-- Generator: Adobe Illustrator 19.0.0, SVG Export Plug-In . SVG Version: 6.00 Build 0)  -->
<svg version="1.1" id="Capa_1" xmlns="http://www.w3.org/2000/svg" xmlns:xlink="http://www.w3.org/1999/xlink" x="0px" y="0px"
	 viewBox="0 0 512.002 512.002" style="enable-background:new 0 0 512.002 512.002;" xml:space="preserve">
<g>
	<g fill="rgb(241,69,69)">
		<circle cx="393.001" cy="118.991" r="15"/>
	</g>
</g>
<g>
	<g fill="rgb(241,69,69)">
		<circle cx="73" cy="438.991" r="15"/>
	</g>
</g>
<g>
	<g fill="rgb(241,69,69)">
		<path d="M507.43,100.051c-2.949-11.158-16.931-14.952-25.109-6.774l-13.496,13.496l-13.538-40.615
			c-1.493-4.479-5.008-7.994-9.487-9.487l-40.614-13.538l13.497-13.497c8.16-8.16,4.407-22.155-6.774-25.109
			c-27.454-7.254-57.005-5.752-83.208,4.231c-28.091,10.703-51.479,30.428-67.637,57.043c-12.244,20.17-18.809,43.602-18.983,67.762
			c-0.318,43.679-16.497,81.604-45.509,106.748L24.454,388.23c-32.86,28.478-32.699,79.823,1.133,108.079
			c29.364,24.523,74.657,19.784,100.963-10.569c0.028-0.032,0.056-0.065,0.084-0.098l144.557-169.729
			c25.394-29.27,64.342-46.173,106.867-46.374c35.817-0.169,69.491-14.21,94.819-39.538c16.986-16.987,29.078-38.231,34.969-61.436
			C513.515,146.227,513.371,122.536,507.43,100.051z M429.198,82.761l15.91,47.73l-39.922,39.922l-47.73-15.91
			c-2.308-6.923-13.602-40.806-15.91-47.729c7.777-7.777,32.278-32.278,39.922-39.923L429.198,82.761z M451.663,208.788
			c-19.7,19.699-45.89,30.621-73.748,30.752c-51.199,0.241-98.376,20.934-129.436,56.771c-0.028,0.033-0.056,0.065-0.084,0.098
			L103.84,466.137c-15.408,17.732-42.423,21.009-59.022,7.146c-20.1-16.787-19.194-46.368-0.763-62.342l172.116-147.916
			c35.671-30.915,55.526-76.814,55.907-129.242c0.136-18.747,5.195-36.871,14.629-52.413c19.951-32.864,53.236-51.467,89.345-51.529
			c-7.656,7.656-54.582,54.582-62.274,62.274c-4.018,4.018-5.42,9.96-3.624,15.35l21.213,63.64c1.493,4.479,5.008,7.994,9.487,9.487
			l63.64,21.213c0.364,0.121,0.732,0.226,1.1,0.318c5.167,1.288,10.576-0.269,14.249-3.941c7.7-7.7,54.618-54.618,62.227-62.227
			C481.952,163.117,471.37,189.081,451.663,208.788z"/>
	</g>
</g>
<g>
</g>
<g>
</g>
<g>
</g>
<g>
</g>
<g>
</g>
<g>
</g>
<g>
</g>
<g>
</g>
<g>
</g>
<g>
</g>
<g>
</g>
<g>
</g>
<g>
</g>
<g>
</g>
<g>
</g>
</svg>
