<svg id="Layer_2" fill="rgb(241,69,69)" height="512" viewBox="0 0 128 128" width="512" xmlns="http://www.w3.org/2000/svg" data-name="Layer 2"><path d="m84.894 38.313a1.749 1.749 0 0 0 -2.475 0l-44.107 44.105a1.752 1.752 0 0 0 0 2.475l4.8 4.8a1.752 1.752 0 0 0 2.475 0l44.1-44.111a1.749 1.749 0 0 0 0-2.475zm-40.55 47.662-2.319-2.319 41.631-41.631 2.32 2.319z"/><path d="m126.429 15.415a1.749 1.749 0 0 0 -2.877-.626l-16.373 16.374-7.992-2.349-2.349-7.993 16.373-16.373a1.749 1.749 0 0 0 -.626-2.877 24.963 24.963 0 0 0 -26.314 5.729l-1.085 1.081a24.349 24.349 0 0 0 -6.416 23.086l-47.3 47.3a24.348 24.348 0 0 0 -23.09 6.418l-1.08 1.086a24.962 24.962 0 0 0 -5.725 26.314 1.749 1.749 0 0 0 2.877.626l16.369-16.374 7.993 2.349 2.349 7.993-16.374 16.373a1.749 1.749 0 0 0 .626 2.877 24.951 24.951 0 0 0 26.314-5.724l1.086-1.086a24.351 24.351 0 0 0 6.415-23.086l47.3-47.3a24.353 24.353 0 0 0 23.086-6.415l1.085-1.086a24.966 24.966 0 0 0 5.728-26.317zm-8.2 23.84-1.084 1.085a20.862 20.862 0 0 1 -20.64 5.26 1.751 1.751 0 0 0 -1.731.442l-48.735 48.732a1.751 1.751 0 0 0 -.442 1.731 20.854 20.854 0 0 1 -5.257 20.639l-1.085 1.085a21.467 21.467 0 0 1 -19.922 5.728l15.039-15.038a1.75 1.75 0 0 0 .441-1.731l-2.913-9.905a1.752 1.752 0 0 0 -1.183-1.183l-9.9-2.91a1.753 1.753 0 0 0 -1.731.441l-15.043 15.036a21.467 21.467 0 0 1 5.728-19.922l1.084-1.085a20.858 20.858 0 0 1 20.645-5.26 1.756 1.756 0 0 0 1.731-.442l48.73-48.732a1.749 1.749 0 0 0 .439-1.726 20.859 20.859 0 0 1 5.258-20.64l1.085-1.084a21.471 21.471 0 0 1 19.921-5.728l-15.035 15.033a1.751 1.751 0 0 0 -.442 1.731l2.911 9.9a1.751 1.751 0 0 0 1.185 1.188l9.905 2.91a1.758 1.758 0 0 0 1.731-.441l15.037-15.038a21.465 21.465 0 0 1 -5.727 19.924z"/></svg>